<svg width="102" height="102">
	<polygon points="51,51 76,76 101,51" fill="#FF0000" stroke="#000000" stroke-width="2"/>
	<polygon points="51,51 51,101 76,76" fill="#00FF00" stroke="#000000" stroke-width="2"/>
	<polygon points="51,101 76,76 101,101" fill="#FF0000" stroke="#000000" stroke-width="2"/>
	<polygon points="101,101 76,76 101,51" fill="#FF0000" stroke="#000000" stroke-width="2"/>
	<polygon points="1,51 26,76 51,51" fill="#FF0000" stroke="#000000" stroke-width="2"/>
	<polygon points="1,51 1,101 26,76" fill="#FF0000" stroke="#000000" stroke-width="2"/>
	<polygon points="1,101 26,76 51,101" fill="#FF0000" stroke="#000000" stroke-width="2"/>
	<polygon points="51,101 26,76 51,51" fill="#00FF00" stroke="#000000" stroke-width="2"/>
	<polygon points="51,1 76,26 101,1" fill="#FF0000" stroke="#000000" stroke-width="2"/>
	<polygon points="51,1 51,51 76,26" fill="#00FF00" stroke="#000000" stroke-width="2"/>
	<polygon points="51,51 76,26 101,51" fill="#FF0000" stroke="#000000" stroke-width="2"/>
	<polygon points="101,51 76,26 101,1" fill="#FF0000" stroke="#000000" stroke-width="2"/>
	<polygon points="1,1 26,26 51,1" fill="#FF0000" stroke="#000000" stroke-width="2"/>
	<polygon points="1,1 1,51 26,26" fill="#FF0000" stroke="#000000" stroke-width="2"/>
	<polygon points="1,51 26,26 51,51" fill="#FF0000" stroke="#000000" stroke-width="2"/>
	<polygon points="51,51 26,26 51,1" fill="#00FF00" stroke="#000000" stroke-width="2"/>
</svg>
