<svg width="202" height="202">
	<polygon points="151,151 176,176 201,151" fill="#7F00FF" stroke="#000000" stroke-width="2"/>
	<polygon points="151,151 151,201 176,176" fill="#FF0000" stroke="#000000" stroke-width="2"/>
	<polygon points="151,201 176,176 201,201" fill="#7F00FF" stroke="#000000" stroke-width="2"/>
	<polygon points="201,201 176,176 201,151" fill="#7F00FF" stroke="#000000" stroke-width="2"/>
	<polygon points="101,151 126,176 151,151" fill="#FF7F00" stroke="#000000" stroke-width="2"/>
	<polygon points="101,151 101,201 126,176" fill="#007FFF" stroke="#000000" stroke-width="2"/>
	<polygon points="101,201 126,176 151,201" fill="#FF7F00" stroke="#000000" stroke-width="2"/>
	<polygon points="151,201 126,176 151,151" fill="#FF0000" stroke="#000000" stroke-width="2"/>
	<polygon points="51,151 76,176 101,151" fill="#FF7F00" stroke="#000000" stroke-width="2"/>
	<polygon points="51,151 51,201 76,176" fill="#007FFF" stroke="#000000" stroke-width="2"/>
	<polygon points="51,201 76,176 101,201" fill="#7F00FF" stroke="#000000" stroke-width="2"/>
	<polygon points="101,201 76,176 101,151" fill="#007FFF" stroke="#000000" stroke-width="2"/>
	<polygon points="1,151 26,176 51,151" fill="#FF0000" stroke="#000000" stroke-width="2"/>
	<polygon points="1,151 1,201 26,176" fill="#007FFF" stroke="#000000" stroke-width="2"/>
	<polygon points="1,201 26,176 51,201" fill="#FFFF00" stroke="#000000" stroke-width="2"/>
	<polygon points="51,201 26,176 51,151" fill="#007FFF" stroke="#000000" stroke-width="2"/>
	<polygon points="151,101 176,126 201,101" fill="#FF0000" stroke="#000000" stroke-width="2"/>
	<polygon points="151,101 151,151 176,126" fill="#7F00FF" stroke="#000000" stroke-width="2"/>
	<polygon points="151,151 176,126 201,151" fill="#7F00FF" stroke="#000000" stroke-width="2"/>
	<polygon points="201,151 176,126 201,101" fill="#7F00FF" stroke="#000000" stroke-width="2"/>
	<polygon points="101,101 126,126 151,101" fill="#FF7F00" stroke="#000000" stroke-width="2"/>
	<polygon points="101,101 101,151 126,126" fill="#00FF00" stroke="#000000" stroke-width="2"/>
	<polygon points="101,151 126,126 151,151" fill="#FF7F00" stroke="#000000" stroke-width="2"/>
	<polygon points="151,151 126,126 151,101" fill="#7F00FF" stroke="#000000" stroke-width="2"/>
	<polygon points="51,101 76,126 101,101" fill="#FF0000" stroke="#000000" stroke-width="2"/>
	<polygon points="51,101 51,151 76,126" fill="#00FF00" stroke="#000000" stroke-width="2"/>
	<polygon points="51,151 76,126 101,151" fill="#FF7F00" stroke="#000000" stroke-width="2"/>
	<polygon points="101,151 76,126 101,101" fill="#00FF00" stroke="#000000" stroke-width="2"/>
	<polygon points="1,101 26,126 51,101" fill="#FFFF00" stroke="#000000" stroke-width="2"/>
	<polygon points="1,101 1,151 26,126" fill="#00FF00" stroke="#000000" stroke-width="2"/>
	<polygon points="1,151 26,126 51,151" fill="#FF0000" stroke="#000000" stroke-width="2"/>
	<polygon points="51,151 26,126 51,101" fill="#00FF00" stroke="#000000" stroke-width="2"/>
	<polygon points="151,51 176,76 201,51" fill="#FF7F00" stroke="#000000" stroke-width="2"/>
	<polygon points="151,51 151,101 176,76" fill="#7F00FF" stroke="#000000" stroke-width="2"/>
	<polygon points="151,101 176,76 201,101" fill="#FF0000" stroke="#000000" stroke-width="2"/>
	<polygon points="201,101 176,76 201,51" fill="#7F00FF" stroke="#000000" stroke-width="2"/>
	<polygon points="101,51 126,76 151,51" fill="#FF0000" stroke="#000000" stroke-width="2"/>
	<polygon points="101,51 101,101 126,76" fill="#7F00FF" stroke="#000000" stroke-width="2"/>
	<polygon points="101,101 126,76 151,101" fill="#FF7F00" stroke="#000000" stroke-width="2"/>
	<polygon points="151,101 126,76 151,51" fill="#7F00FF" stroke="#000000" stroke-width="2"/>
	<polygon points="51,51 76,76 101,51" fill="#FF0000" stroke="#000000" stroke-width="2"/>
	<polygon points="51,51 51,101 76,76" fill="#FF0000" stroke="#000000" stroke-width="2"/>
	<polygon points="51,101 76,76 101,101" fill="#FF0000" stroke="#000000" stroke-width="2"/>
	<polygon points="101,101 76,76 101,51" fill="#7F00FF" stroke="#000000" stroke-width="2"/>
	<polygon points="1,51 26,76 51,51" fill="#FFFF00" stroke="#000000" stroke-width="2"/>
	<polygon points="1,51 1,101 26,76" fill="#00FF00" stroke="#000000" stroke-width="2"/>
	<polygon points="1,101 26,76 51,101" fill="#FFFF00" stroke="#000000" stroke-width="2"/>
	<polygon points="51,101 26,76 51,51" fill="#FF0000" stroke="#000000" stroke-width="2"/>
	<polygon points="151,1 176,26 201,1" fill="#FF0000" stroke="#000000" stroke-width="2"/>
	<polygon points="151,1 151,51 176,26" fill="#7F00FF" stroke="#000000" stroke-width="2"/>
	<polygon points="151,51 176,26 201,51" fill="#FF7F00" stroke="#000000" stroke-width="2"/>
	<polygon points="201,51 176,26 201,1" fill="#7F00FF" stroke="#000000" stroke-width="2"/>
	<polygon points="101,1 126,26 151,1" fill="#FF7F00" stroke="#000000" stroke-width="2"/>
	<polygon points="101,1 101,51 126,26" fill="#7F00FF" stroke="#000000" stroke-width="2"/>
	<polygon points="101,51 126,26 151,51" fill="#FF0000" stroke="#000000" stroke-width="2"/>
	<polygon points="151,51 126,26 151,1" fill="#7F00FF" stroke="#000000" stroke-width="2"/>
	<polygon points="51,1 76,26 101,1" fill="#FF0000" stroke="#000000" stroke-width="2"/>
	<polygon points="51,1 51,51 76,26" fill="#FF0000" stroke="#000000" stroke-width="2"/>
	<polygon points="51,51 76,26 101,51" fill="#FF0000" stroke="#000000" stroke-width="2"/>
	<polygon points="101,51 76,26 101,1" fill="#7F00FF" stroke="#000000" stroke-width="2"/>
	<polygon points="1,1 26,26 51,1" fill="#FFFF00" stroke="#000000" stroke-width="2"/>
	<polygon points="1,1 1,51 26,26" fill="#007FFF" stroke="#000000" stroke-width="2"/>
	<polygon points="1,51 26,26 51,51" fill="#FFFF00" stroke="#000000" stroke-width="2"/>
	<polygon points="51,51 26,26 51,1" fill="#FF0000" stroke="#000000" stroke-width="2"/>
</svg>
